<?xml version="1.0" standalone="no"?><!DOCTYPE svg PUBLIC "-//W3C//DTD SVG 1.1//EN" "http://www.w3.org/Graphics/SVG/1.1/DTD/svg11.dtd"><svg t="1564533071372" class="icon" viewBox="0 0 1024 1024" version="1.1" xmlns="http://www.w3.org/2000/svg" p-id="2010" xmlns:xlink="http://www.w3.org/1999/xlink" width="128" height="128"><defs><style type="text/css"></style></defs><path d="M947.481 124.482v135.741c0 9.197-3.363 17.15-10.074 23.861-6.721 6.719-14.674 10.074-23.863 10.074h-814.448c-9.197 0-17.15-3.356-23.861-10.074-6.719-6.711-10.074-14.665-10.074-23.861v-135.741c0-9.188 3.356-17.142 10.074-23.861 6.711-6.711 14.665-10.074 23.861-10.074h814.449c9.189 0 17.142 3.363 23.863 10.074 6.71 6.719 10.073 14.673 10.073 23.861zM913.542 362.032v509.030c0 9.188-3.363 17.142-10.074 23.861-6.719 6.711-14.672 10.075-23.861 10.075h-746.578c-9.197 0-17.15-3.364-23.861-10.075-6.719-6.719-10.074-14.673-10.074-23.861v-509.030c0-9.188 3.356-17.142 10.074-23.861 6.711-6.711 14.665-10.074 23.861-10.074h746.579c9.189 0 17.142 3.363 23.861 10.074 6.71 6.718 10.073 14.673 10.073 23.861zM598.049 487.696c6.714-6.711 10.077-14.662 10.077-23.861 0-9.188-3.363-17.142-10.077-23.861-6.719-6.711-14.672-10.074-23.861-10.074h-135.739c-9.197 0-17.15 3.363-23.861 10.074-6.719 6.719-10.074 14.673-10.074 23.861 0 9.197 3.356 17.15 10.074 23.861 6.711 6.719 14.665 10.075 23.861 10.075h135.739c9.189 0 17.145-3.357 23.861-10.075z" p-id="2011"></path></svg>